HIERARCHY
ROOT Hips
{
	OFFSET 0.000000 0.000000 0.000000
	CHANNELS 6 Xposition Yposition Zposition Zrotation Yrotation Xrotation 
	JOINT LHipJoint
	{
		OFFSET 0.000000 0.000000 0.000000
		CHANNELS 3 Zrotation Yrotation Xrotation
		JOINT LeftUpLeg
		{
			OFFSET 1.363060 -1.794630 0.839290
			CHANNELS 3 Zrotation Yrotation Xrotation
			JOINT LeftLeg
			{
				OFFSET 2.448110 -6.726130 0.000000
				CHANNELS 3 Zrotation Yrotation Xrotation
				JOINT LeftFoot
				{
					OFFSET 2.562200 -7.039590 0.000000
					CHANNELS 3 Zrotation Yrotation Xrotation
					JOINT LeftToeBase
					{
						OFFSET 0.157640 -0.433110 2.322550
						CHANNELS 3 Zrotation Yrotation Xrotation
						End Site
						{
							OFFSET 0.000000 0.000000 0.000000
						}
					}
				}
			}
		}
	}
	JOINT RHipJoint
	{
		OFFSET 0.000000 0.000000 0.000000
		CHANNELS 3 Zrotation Yrotation Xrotation
		JOINT RightUpLeg
		{
			OFFSET -1.305520 -1.794630 0.839290
			CHANNELS 3 Zrotation Yrotation Xrotation
			JOINT RightLeg
			{
				OFFSET -2.542530 -6.985550 0.000000
				CHANNELS 3 Zrotation Yrotation Xrotation
				JOINT RightFoot
				{
					OFFSET -2.568260 -7.056230 0.000000
					CHANNELS 3 Zrotation Yrotation Xrotation
					JOINT RightToeBase
					{
						OFFSET -0.164730 -0.452590 2.363150
						CHANNELS 3 Zrotation Yrotation Xrotation
						End Site
						{
							OFFSET 0.000000 0.000000 0.000000
						}
					}
				}
			}
		}
	}
}
MOTION
Frames: 16
Frame Time: 0.008333
-2.067850 17.094945 -0.307497 17.414218 75.528240 28.622822 -9.710249 1.165295 4.140204 -11.572009 -3.229402 -31.523779 -2.993040 -0.080386 13.739996 -0.615420 -5.193973 3.317360 -0.576300 0.000000 -33.518401 10.312052 -3.795473 0.963783 5.858299 -3.117856 -4.952950 1.488521 -2.322652 33.050333 1.292334 15.283997 1.150831 1.794600 0.000000 -48.108900
-1.937285 17.098953 -0.277738 18.301856 75.093551 29.350809 -9.686886 1.270772 4.071736 -12.136260 -2.798364 -30.977039 -3.069883 -0.078640 13.936214 -0.635892 -5.459367 2.877895 -0.586599 -0.000000 -32.281500 10.494734 -3.821823 0.912977 5.283552 -3.689017 -6.059378 1.189043 -2.510430 35.492819 1.202534 15.083446 2.824845 2.205200 0.000000 -50.518700
-1.808743 17.102123 -0.247882 19.090184 74.640605 30.002763 -9.658892 1.373559 4.027707 -12.652392 -2.458825 -30.419409 -3.141112 -0.085644 14.067343 -0.647588 -5.641972 2.415466 -0.578299 0.000000 -31.104400 10.675388 -3.826036 0.853826 4.738388 -4.309393 -7.273762 0.883260 -2.681428 37.996131 1.086910 14.705814 4.530869 2.598100 0.000000 -52.608601
-1.682098 17.104717 -0.218023 19.754891 74.170711 30.554136 -9.629138 1.473399 4.003777 -13.120805 -2.185213 -29.865214 -3.205080 -0.099221 14.150895 -0.649514 -5.731760 1.941282 -0.553300 0.000000 -30.056900 10.847973 -3.806593 0.789221 4.242324 -4.956342 -8.575357 0.577869 -2.833959 40.530402 0.943737 14.070637 6.200461 2.922800 0.000000 -54.281901
-1.557317 17.107059 -0.188047 20.306887 73.684137 31.010454 -9.598001 1.570382 3.995604 -13.549559 -1.959755 -29.316153 -3.261360 -0.118295 14.193214 -0.640672 -5.717459 1.467120 -0.513499 -0.000000 -29.193300 11.010283 -3.762502 0.719368 3.799282 -5.620393 -9.942894 0.278284 -2.968360 43.065132 0.771688 13.109716 7.779196 3.127200 -0.000000 -55.641900
-1.434332 17.109456 -0.157679 20.777623 73.180574 31.396926 -9.563590 1.664730 4.000002 -13.950884 -1.775126 -28.764093 -3.310364 -0.142971 14.190132 -0.620083 -5.587294 1.004668 -0.460800 -0.000000 -28.542701 11.162930 -3.693077 0.643124 3.401818 -6.299239 -11.358151 -0.009902 -3.086580 45.575732 0.570061 11.775219 9.199733 3.159200 -0.000000 -56.668900
-1.313176 17.112366 -0.127156 21.136797 72.661394 31.677051 -9.530205 1.755964 4.009424 -14.320410 -1.598740 -28.210560 -3.351670 -0.171453 14.152644 -0.589053 -5.360276 0.555673 -0.400500 0.000000 -28.113100 11.300188 -3.599764 0.562387 3.066486 -6.970530 -12.793930 -0.281359 -3.190179 48.028640 0.338223 10.034791 10.399019 2.976600 0.000000 -57.362300
-1.193866 17.116152 -0.096498 21.387913 72.126603 31.848613 -9.498893 1.843705 4.019238 -14.659756 -1.417998 -27.647301 -3.385638 -0.203426 14.078985 -0.548393 -5.047470 0.123422 -0.335599 0.000000 -27.883401 11.420602 -3.484222 0.477277 2.793480 -7.623261 -14.230563 -0.531408 -3.281887 50.398951 0.076692 7.898899 11.308109 2.561299 -0.000000 -57.604000
-1.076439 17.121098 -0.065853 21.522671 71.576359 31.899021 -9.472037 1.927348 4.025032 -14.965264 -1.220386 -27.067366 -3.412418 -0.238413 13.968485 -0.499525 -4.666922 -0.292148 -0.269700 -0.000000 -27.814400 11.521837 -3.349527 0.389051 2.586935 -8.241787 -15.649706 -0.756198 -3.364346 52.661047 -0.212120 5.419056 11.865269 1.928400 0.000000 -57.274000
-0.960964 17.127417 -0.035421 21.532324 71.010688 31.817367 -9.452113 2.006171 4.023552 -15.231647 -0.998985 -26.465768 -3.432056 -0.275928 13.820547 -0.444049 -4.237285 -0.692340 -0.205300 -0.000001 -27.855801 11.601983 -3.199895 0.299489 2.450434 -8.809813 -17.037393 -0.953040 -3.440102 54.791167 -0.522666 2.691326 12.022711 1.130200 0.000000 -56.257600
-0.847475 17.135140 -0.005332 21.410568 70.428769 31.597702 -9.441502 2.079598 4.012899 -15.452601 -0.751673 -25.839662 -3.444484 -0.315474 13.635185 -0.383519 -3.775322 -1.079171 -0.144700 0.000000 -27.956300 11.659744 -3.040524 0.211145 2.386543 -9.311273 -18.384820 -1.120646 -3.511187 56.766688 -0.845519 -0.150020 11.757069 0.251000 -0.000000 -54.511700
-0.736032 17.144168 0.024282 21.155174 69.829892 31.240538 -9.442055 2.147197 3.992386 -15.623172 -0.480470 -25.190090 -3.449687 -0.356509 13.413280 -0.319359 -3.294855 -1.454428 -0.089100 -0.000000 -28.070200 11.694624 -2.877110 0.127038 2.396324 -9.731665 -19.688199 -1.259056 -3.578906 58.567637 -1.167389 -2.947126 11.075641 -0.607200 -0.000001 -52.070900
-0.626749 17.154155 0.053568 20.795475 69.214389 30.770310 -9.452419 2.208904 3.959869 -15.748251 -0.194759 -24.503837 -3.448278 -0.398577 13.151289 -0.252277 -2.801297 -1.818062 -0.039100 0.000000 -28.159700 11.709523 -2.713878 0.047890 2.467250 -10.058736 -20.934290 -1.369557 -3.644374 60.175800 -1.472597 -5.541019 10.016460 -1.346699 0.000000 -49.066100
-0.519338 17.165046 0.082282 20.289636 68.578091 30.168637 -9.477707 2.264941 3.921428 -15.812004 0.112140 -23.823489 -3.439435 -0.440773 12.866530 -0.184008 -2.310168 -2.173817 0.004300 0.000000 -28.210400 11.700882 -2.558014 -0.016844 2.619030 -10.286913 -22.159893 -1.453022 -3.705531 61.584122 -1.743663 -7.785827 8.653319 -1.892899 -0.000000 -45.622300
-0.413910 17.176245 0.110813 19.687066 67.922307 29.479290 -9.513989 2.315942 3.874899 -15.828535 0.431259 -23.136277 -3.424570 -0.482701 12.557027 -0.114789 -1.820655 -2.519639 0.041500 -0.000001 -28.213000 11.673941 -2.411135 -0.067467 2.831091 -10.413681 -23.354772 -1.510981 -3.762187 62.783180 -1.965620 -9.575894 7.071591 -2.209500 0.000000 -41.957000
-0.310449 17.187370 0.139371 19.004188 67.251479 28.712669 -9.561753 2.362777 3.816865 -15.800057 0.775188 -22.441351 -3.404493 -0.522747 12.232466 -0.046514 -1.347797 -2.855611 0.071700 -0.000000 -28.177501 11.630218 -2.275416 -0.103821 3.097544 -10.442039 -24.509093 -1.544285 -3.812604 63.764916 -2.126807 -10.849612 5.369546 -2.300900 -0.000000 -38.270100
